<svg width="339" height="133" viewBox="0 0 339 133" fill="none" xmlns="http://www.w3.org/2000/svg">
<path d="M54.8716 19.4282V46.3052C55.0978 46.9386 50.098 49.2915 39.8721 53.3638C39.8721 55.3094 40.5055 58.5446 41.7725 63.0693C43.0846 67.5488 44.7814 72.2319 46.8628 77.1187C48.2655 80.3765 49.8944 83.4307 51.7495 86.2812C53.6499 89.0866 55.6634 91.349 57.79 93.0684C59.9619 94.7878 62.0885 95.6475 64.1699 95.6475V99.7876C55.5729 105.263 50.098 108 47.7451 108C46.6592 108 45.3923 107.027 43.9443 105.082C42.4964 103.091 40.958 100.489 39.3291 97.2764C37.7454 94.0638 36.1844 90.5571 34.646 86.7563C33.1076 82.9103 31.7049 79.1095 30.438 75.354C29.2163 71.5985 28.2209 68.2049 27.4517 65.1733C26.7277 62.0965 26.3657 59.7437 26.3657 58.1147L25.687 58.3862V86.6206C25.687 90.0142 26.049 92.4575 26.7729 93.9507C27.4969 95.4438 29.0353 96.1904 31.3882 96.1904V100.466L2.88232 112.479L0.642578 108C2.67871 108 4.62435 106.801 6.47949 104.403C8.15365 102.14 8.99072 98.6112 8.99072 93.8149V21.8037C8.99072 16.1478 7.09033 12.9578 3.28955 12.2339V9.17969L17.3389 1.23877C19.375 2.09847 21.2754 3.47852 23.04 5.37891C24.8047 7.2793 25.687 8.9987 25.687 10.5371V51.8706C27.3159 51.8706 29.1032 51.5086 31.0488 50.7847C32.9945 50.0607 34.6686 49.1558 36.0713 48.0698C37.474 46.9386 38.1753 45.8301 38.1753 44.7441V26.6904C38.1753 23.2516 37.7907 20.8083 37.0215 19.3604C36.2975 17.8672 34.7817 17.1206 32.4741 17.1206V12.7769L60.98 0.831543L63.2197 5.31104C61.1836 5.31104 59.238 6.51009 57.3828 8.9082C55.7087 11.1706 54.8716 14.6772 54.8716 19.4282ZM111.205 47.1196V86.4849C111.205 89.8784 111.748 92.2539 112.833 93.6113C113.965 94.9688 115.684 95.9189 117.992 96.4619V99.5161L102.856 108C100.82 107.186 98.9199 105.828 97.1553 103.928C95.3906 102.027 94.5083 100.285 94.5083 98.7017L77.1333 108C76.9976 107.91 76.8166 107.819 76.5903 107.729C76.4093 107.593 76.1831 107.434 75.9116 107.253C75.3234 106.937 74.3506 106.235 72.9932 105.149C71.681 104.063 70.5046 102.932 69.4639 101.756C66.7038 98.7243 65.3237 95.2402 65.3237 91.3037V68.499C65.3237 67.5036 66.4549 66.3045 68.7173 64.9019C71.0249 63.4992 73.8529 62.0965 77.2012 60.6938C80.5495 59.2912 83.8073 58.0921 86.9746 57.0967L94.3726 54.7891C94.3726 51.2598 93.7843 48.4771 92.6079 46.4409C91.4315 44.3595 89.3727 42.8664 86.4316 41.9614C83.5358 41.0565 79.4183 40.604 74.0791 40.604V36.396C88.332 31.3283 96.3861 28.7944 98.2412 28.7944C100.323 28.7944 102.336 29.7446 104.282 31.645C106.273 33.5002 107.924 35.8304 109.236 38.6357C110.549 41.4411 111.205 44.269 111.205 47.1196ZM82.02 86.3491C82.02 88.702 82.744 90.6476 84.1919 92.186C85.6398 93.7244 87.2461 94.4937 89.0107 94.4937C90.7754 94.4484 92.6079 93.7697 94.5083 92.4575V61.0332C92.2007 61.8477 90.4587 62.549 89.2822 63.1372C88.151 63.6802 86.9294 64.5399 85.6172 65.7163C83.2191 67.9787 82.02 71.8247 82.02 77.2544V86.3491ZM168.216 47.1196V86.4849C168.216 89.8784 168.759 92.2539 169.845 93.6113C170.976 94.9688 172.696 95.9189 175.003 96.4619V99.5161L159.868 108C157.832 107.186 155.932 105.828 154.167 103.928C152.402 102.027 151.52 100.285 151.52 98.7017L134.145 108C134.009 107.91 133.828 107.819 133.602 107.729C133.421 107.593 133.195 107.434 132.923 107.253C132.335 106.937 131.362 106.235 130.005 105.149C128.693 104.063 127.516 102.932 126.476 101.756C123.715 98.7243 122.335 95.2402 122.335 91.3037V68.499C122.335 67.5036 123.467 66.3045 125.729 64.9019C128.037 63.4992 130.865 62.0965 134.213 60.6938C137.561 59.2912 140.819 58.0921 143.986 57.0967L151.384 54.7891C151.384 51.2598 150.796 48.4771 149.62 46.4409C148.443 44.3595 146.384 42.8664 143.443 41.9614C140.548 41.0565 136.43 40.604 131.091 40.604V36.396C145.344 31.3283 153.398 28.7944 155.253 28.7944C157.334 28.7944 159.348 29.7446 161.293 31.645C163.284 33.5002 164.936 35.8304 166.248 38.6357C167.56 41.4411 168.216 44.269 168.216 47.1196ZM139.032 86.3491C139.032 88.702 139.756 90.6476 141.204 92.186C142.652 93.7244 144.258 94.4937 146.022 94.4937C147.787 94.4484 149.62 93.7697 151.52 92.4575V61.0332C149.212 61.8477 147.47 62.549 146.294 63.1372C145.163 63.6802 143.941 64.5399 142.629 65.7163C140.231 67.9787 139.032 71.8247 139.032 77.2544V86.3491ZM225.228 43.5225L193.668 94.3579H204.663C210.319 94.3579 213.509 92.8421 214.233 89.8105H217.287L225.228 101.213C224.097 102.978 222.649 104.561 220.884 105.964C219.12 107.321 217.423 108 215.794 108H179.347C177.492 102.299 176.564 97.8872 176.564 94.7651L209.21 43.6582H197.129C191.473 43.6582 188.284 45.174 187.56 48.2056H184.505L176.564 36.8032C177.696 35.0838 179.121 33.5228 180.84 32.1201C182.605 30.7174 184.324 30.0161 185.999 30.0161H204.663C210.274 30.0161 213.464 28.4777 214.233 25.4009H217.287C217.966 26.2606 218.735 27.5954 219.595 29.4053C220.5 31.1699 221.382 33.0703 222.242 35.1064C223.101 37.0973 223.803 38.8846 224.346 40.4683C224.934 42.0067 225.228 43.0247 225.228 43.5225ZM267.647 28.7944C268.145 28.7944 269.299 29.4958 271.109 30.8984C272.964 32.3011 274.819 34.292 276.674 36.8711C278.529 39.4502 279.457 41.9388 279.457 44.3369V67.6846C279.457 69.3587 277.014 71.3949 272.127 73.793C269.638 75.0146 266.81 76.259 263.643 77.5259C260.476 78.7928 257.625 79.8561 255.091 80.7158C252.557 81.5755 250.996 82.0054 250.408 82.0054C250.408 89.1092 253.508 93.5208 259.707 95.2402C262.648 95.9642 266.313 96.3262 270.702 96.3262V100.331C255.453 105.444 247.331 108 246.336 108C244.526 108 242.626 107.095 240.635 105.285C238.644 103.43 236.97 101.009 235.612 98.0229C234.255 95.0366 233.576 91.7788 233.576 88.2495V41.5542C233.576 41.2827 234.617 40.6945 236.698 39.7896C238.825 38.8394 241.472 37.7534 244.639 36.5317C247.806 35.3101 251.019 34.111 254.277 32.9346C257.58 31.7129 260.476 30.7174 262.964 29.9482C265.453 29.179 267.014 28.7944 267.647 28.7944ZM262.761 50.8525C262.761 48.3187 262.173 46.1242 260.996 44.269C259.774 42.4591 258.213 41.5542 256.313 41.5542C254.458 41.5542 252.444 42.2555 250.272 43.6582V75.7612C258.598 73.4536 262.761 68.4538 262.761 60.7617V50.8525ZM292.624 123.271V50.1738C292.624 48.0472 292.036 45.9658 290.859 43.9297C289.728 41.8936 288.099 40.7397 285.973 40.4683V37.4141C286.606 37.3236 291.651 34.4956 301.108 28.9302C303.235 29.8351 305.158 31.1925 306.877 33.0024C308.596 34.8123 309.456 36.5091 309.456 38.0928C319.365 31.9844 325.157 28.9302 326.831 28.9302C327.465 28.9302 328.686 29.6315 330.496 31.0342C332.306 32.4368 334.116 34.5182 335.926 37.2783C337.736 40.0384 338.641 42.8438 338.641 45.6943V95.2402C338.641 95.5117 337.849 96.0321 336.265 96.8013C334.681 97.5705 332.645 98.4754 330.157 99.5161C327.668 100.512 325.066 101.53 322.352 102.57C319.637 103.566 317.103 104.471 314.75 105.285C312.397 106.1 310.587 106.688 309.32 107.05V112.14C309.32 117.796 311.221 121.009 315.021 121.778V124.832L300.972 132.773C298.936 131.913 297.036 130.533 295.271 128.633C293.506 126.732 292.624 124.945 292.624 123.271ZM314.886 41.6899C313.121 41.6899 311.311 42.4365 309.456 43.9297V99.1089C311.085 99.1089 312.872 98.7469 314.818 98.0229C316.764 97.2537 318.438 96.3035 319.84 95.1724C321.243 94.0412 321.944 92.8874 321.944 91.7109V52.0063C321.944 45.1287 319.591 41.6899 314.886 41.6899Z" fill="#03E800"/>
</svg>
