<svg width="353" height="124" viewBox="0 0 353 124" fill="none" xmlns="http://www.w3.org/2000/svg">
<path d="M0 80V0.349995H8.1V80H0ZM12.15 80V0.349995H24.3V80H12.15ZM28.35 80V0.349995H32.4V80H28.35ZM22.14 123.605C18.09 123.605 14.805 122.255 12.285 119.555L14.175 116.45L14.31 116.045L14.715 116.18C14.715 116.27 14.76 116.45 14.85 116.72C14.85 116.9 14.94 117.125 15.12 117.395C15.21 117.575 15.39 117.755 15.66 117.935C17.55 119.555 19.89 120.365 22.68 120.365C24.48 120.365 26.01 119.87 27.27 118.88C28.53 117.8 29.16 116.54 29.16 115.1C29.16 114.11 28.935 113.255 28.485 112.535C28.125 111.905 27.45 111.275 26.46 110.645C25.47 110.015 23.94 109.25 21.87 108.35C18.81 107.18 16.605 105.83 15.255 104.3C13.995 102.77 13.365 101.06 13.365 99.17C13.365 96.83 14.22 94.94 15.93 93.5C17.64 92.06 19.935 91.34 22.815 91.34C24.525 91.34 26.145 91.7 27.675 92.42C29.115 93.14 30.42 94.085 31.59 95.255L29.295 98.36L29.025 98.09C29.025 98 28.98 97.865 28.89 97.685C28.89 97.415 28.8 97.19 28.62 97.01C28.53 96.74 28.35 96.515 28.08 96.335C27.36 95.615 26.505 95.075 25.515 94.715C24.615 94.445 23.535 94.31 22.275 94.31C20.655 94.31 19.395 94.76 18.495 95.66C17.505 96.56 17.01 97.64 17.01 98.9C17.01 99.89 17.19 100.745 17.55 101.465C18 102.185 18.765 102.86 19.845 103.49C20.925 104.21 22.545 104.975 24.705 105.785C27.675 107.045 29.745 108.305 30.915 109.565C31.995 110.915 32.535 112.58 32.535 114.56C32.535 116.09 32.175 117.53 31.455 118.88C30.645 120.23 29.475 121.355 27.945 122.255C26.325 123.155 24.39 123.605 22.14 123.605ZM44.5605 80V0.349995H48.6105V80H44.5605ZM52.6605 80V0.349995H60.7605V80H52.6605ZM68.8605 80V0.349995H72.9105V80H68.8605ZM67.9155 123.605C64.4955 123.605 61.7955 122.57 59.8155 120.5C57.7455 118.43 56.7105 115.505 56.7105 111.725C56.7105 109.205 57.2055 107 58.1955 105.11C59.0955 103.31 60.3555 101.96 61.9755 101.06C63.5055 100.07 65.2605 99.575 67.2405 99.575C70.0305 99.575 72.2805 100.475 73.9905 102.275C75.7005 104.165 76.5555 106.91 76.5555 110.51C76.5555 110.87 76.5555 111.41 76.5555 112.13H60.2205C60.3105 114.92 61.0755 117.035 62.5155 118.475C63.9555 119.915 65.8005 120.635 68.0505 120.635C70.4805 120.635 72.4605 119.78 73.9905 118.07L76.0155 120.095C74.0355 122.435 71.3355 123.605 67.9155 123.605ZM72.9105 109.295C72.9105 107.135 72.3705 105.425 71.2905 104.165C70.2105 102.905 68.7705 102.275 66.9705 102.275C65.3505 102.275 63.9105 102.86 62.6505 104.03C61.3905 105.2 60.6255 106.955 60.3555 109.295H72.9105ZM89.1211 80V0.349995H93.1711V80H89.1211ZM109.371 80V0.349995H113.421V80H109.371ZM117.471 80V0.349995H125.571V80H117.471ZM113.151 123.605C110.901 123.605 108.921 123.11 107.211 122.12C105.501 121.04 104.151 119.6 103.161 117.8C102.171 116 101.676 113.93 101.676 111.59C101.676 109.34 102.171 107.315 103.161 105.515C104.151 103.715 105.501 102.275 107.211 101.195C108.921 100.205 110.901 99.71 113.151 99.71C114.951 99.71 116.616 100.07 118.146 100.79C119.586 101.51 120.801 102.545 121.791 103.895L119.496 106.19L119.226 106.46L118.956 106.19C118.956 105.92 118.866 105.65 118.686 105.38C118.596 105.2 118.371 104.93 118.011 104.57C117.291 103.94 116.526 103.49 115.716 103.22C114.816 102.86 113.826 102.68 112.746 102.68C111.396 102.68 110.181 103.04 109.101 103.76C107.931 104.48 107.031 105.515 106.401 106.865C105.681 108.125 105.321 109.61 105.321 111.32C105.321 113.03 105.681 114.605 106.401 116.045C107.121 117.395 108.066 118.43 109.236 119.15C110.496 119.96 111.846 120.365 113.286 120.365C115.626 120.365 117.651 119.42 119.361 117.53L121.386 119.96C119.136 122.39 116.391 123.605 113.151 123.605ZM133.682 80V0.349995H137.732V80H133.682ZM145.832 80V0.349995H149.882V80H145.832ZM157.982 80V0.349995H174.182V80H157.982ZM160.277 99.575C162.707 99.575 164.732 100.43 166.352 102.14L164.732 104.84L164.597 105.38L164.192 105.11C164.102 104.75 164.012 104.48 163.922 104.3C163.742 104.03 163.427 103.76 162.977 103.49C162.167 102.95 161.177 102.68 160.007 102.68C158.837 102.68 157.712 102.995 156.632 103.625C155.552 104.165 154.697 105.065 154.067 106.325C153.347 107.585 152.987 109.115 152.987 110.915V123.065H149.342V100.115H153.122L152.987 104.3C153.617 102.86 154.607 101.69 155.957 100.79C157.307 99.98 158.747 99.575 160.277 99.575ZM178.242 80V0.349995H182.292V80H178.242ZM186.342 80V0.349995H194.442V80H186.342ZM202.542 80V0.349995H206.592V80H202.542ZM201.597 123.605C198.177 123.605 195.477 122.57 193.497 120.5C191.427 118.43 190.392 115.505 190.392 111.725C190.392 109.205 190.887 107 191.877 105.11C192.777 103.31 194.037 101.96 195.657 101.06C197.187 100.07 198.942 99.575 200.922 99.575C203.712 99.575 205.962 100.475 207.672 102.275C209.382 104.165 210.237 106.91 210.237 110.51C210.237 110.87 210.237 111.41 210.237 112.13H193.902C193.992 114.92 194.757 117.035 196.197 118.475C197.637 119.915 199.482 120.635 201.732 120.635C204.162 120.635 206.142 119.78 207.672 118.07L209.697 120.095C207.717 122.435 205.017 123.605 201.597 123.605ZM206.592 109.295C206.592 107.135 206.052 105.425 204.972 104.165C203.892 102.905 202.452 102.275 200.652 102.275C199.032 102.275 197.592 102.86 196.332 104.03C195.072 105.2 194.307 106.955 194.037 109.295H206.592ZM222.803 80V0.349995H226.853V80H222.803ZM234.953 80V0.349995H251.153V80H234.953ZM255.203 80V0.349995H259.253V80H255.203ZM254.798 120.905C252.638 122.615 250.208 123.47 247.508 123.47C244.988 123.47 243.188 122.705 242.108 121.175C241.028 119.555 240.488 117.035 240.488 113.615C240.488 112.985 240.533 111.995 240.623 110.645L241.163 103.085H236.033V100.115H241.298L241.703 94.04L245.618 93.365H246.158V93.635C245.978 93.905 245.843 94.175 245.753 94.445C245.573 94.715 245.483 95.075 245.483 95.525L244.943 100.115H252.503V103.085H244.673L244.268 110.915C244.178 112.265 244.133 113.12 244.133 113.48C244.133 116.18 244.448 118.025 245.078 119.015C245.708 119.915 246.698 120.365 248.048 120.365C249.038 120.365 249.983 120.185 250.883 119.825C251.693 119.465 252.638 118.88 253.718 118.07L254.798 120.905ZM267.363 80V0.349995H271.413V80H267.363ZM279.513 80V0.349995H287.613V80H279.513ZM291.663 80V0.349995H303.813V80H291.663ZM280.593 105.65H298.683V109.025H280.593V105.65ZM311.924 80V0.349995H324.074V80H311.924ZM328.124 80V0.349995H336.224V80H328.124ZM348.374 80V0.349995H352.424V80H348.374ZM324.209 120.635L339.869 94.985H324.749V91.745H344.054V94.31L328.529 119.96H342.704C343.244 119.96 343.649 119.915 343.919 119.825C344.099 119.735 344.324 119.6 344.594 119.42H344.864V123.065H324.209V120.635Z" fill="#2E2D2D"/>
</svg>
